<svg id="Layer_1" data-name="Layer 1" xmlns="http://www.w3.org/2000/svg" viewBox="0 0 19 19"><defs><style>.cls-1{fill:#c6a645;}.cls-2{fill:#444;}</style></defs><title>18K_Yellow_Gold</title><path class="cls-1" d="M9.5,0A9.5,9.5,0,1,0,19,9.5,9.5,9.5,0,0,0,9.5,0Zm0,17A7.5,7.5,0,1,1,17,9.5,7.5,7.5,0,0,1,9.5,17Z"/><path class="cls-2" d="M7.14,7.4h0L6.11,8,6,7.35l1.27-.68h.68v5.85H7.14Z"/><path class="cls-2" d="M9.29,11a1.7,1.7,0,0,1,1.16-1.58v0a1.44,1.44,0,0,1-.94-1.31,1.65,1.65,0,0,1,1.82-1.56A1.51,1.51,0,0,1,13,8a1.49,1.49,0,0,1-1,1.37v0a1.64,1.64,0,0,1,1.17,1.52,1.8,1.8,0,0,1-2,1.7C10,12.62,9.29,11.89,9.29,11Zm3.15,0c0-.71-.49-1.05-1.29-1.28a1.28,1.28,0,0,0-1.05,1.21A1.08,1.08,0,0,0,11.27,12,1.06,1.06,0,0,0,12.44,11ZM10.26,8.07c0,.59.45.9,1.12,1.08a1.15,1.15,0,0,0,.89-1.06.91.91,0,0,0-1-1A.93.93,0,0,0,10.26,8.07Z"/></svg>