<?xml version="1.0" encoding="utf-8"?>
<!-- Svg Vector Icons : http://www.onlinewebfonts.com/icon -->
<!DOCTYPE svg PUBLIC "-//W3C//DTD SVG 1.1//EN" "http://www.w3.org/Graphics/SVG/1.1/DTD/svg11.dtd">
<svg version="1.1" xmlns="http://www.w3.org/2000/svg" xmlns:xlink="http://www.w3.org/1999/xlink" x="0px" y="0px" viewBox="0 0 1000 1000" enable-background="new 0 0 1000 1000" xml:space="preserve">
<metadata> Svg Vector Icons : http://www.onlinewebfonts.com/icon </metadata>
<g><g><path d="M695.4,197.1l32.3-28c15.4-13.3,18.4-36.1,6.8-53l-61.1-88.8c-7.5-10.9-19.8-17.4-33-17.4H368.7c-12,0-23.3,5.4-30.9,14.6l-70.3,85.7c-13.2,16.1-11.9,39.6,3,54l33.7,32.8c-133.6,70.6-225,210.8-225,372.1C79.3,801.3,268,990,500,990c232,0,420.7-188.7,420.7-420.7C920.7,407.9,829.2,267.6,695.4,197.1z M500,928.6c-198.1,0-359.4-161.2-359.4-359.3c0-145,86.4-269.8,210.3-326.6l110.8,107.9c7.7,7.6,17.8,11.4,27.9,11.4c9.3,0,18.7-3.2,26.1-9.7l129-111.5c126.2,55.8,214.5,182,214.5,328.6C859.3,767.4,698.2,928.6,500,928.6z"/></g><g></g><g></g><g></g><g></g><g></g><g></g><g></g><g></g><g></g><g></g><g></g><g></g><g></g><g></g><g></g></g>
</svg>