<?xml version="1.0" encoding="utf-8"?>
<!-- Generator: Adobe Illustrator 23.0.1, SVG Export Plug-In . SVG Version: 6.00 Build 0)  -->
<svg version="1.1" id="Layer_1" xmlns="http://www.w3.org/2000/svg" xmlns:xlink="http://www.w3.org/1999/xlink" x="0px" y="0px"
	 viewBox="0 0 125.4 78.4" style="enable-background:new 0 0 125.4 78.4;" xml:space="preserve">
<style type="text/css">
	.st0{fill:#EAEAEA;}
	.st1{fill:#F58220;}
	.st2{fill:url(#SVGID_1_);}
	.st3{fill:#001722;}
	.st4{fill:#231F20;}
</style>
<title>pay_by_discover</title>
<g>
	<g id="Isolation_Mode">
		<path class="st0" d="M4.2,0h117.1c2.3,0,4.2,1.9,4.2,4.2v70c0,2.3-1.9,4.2-4.2,4.2H4.2c-2.3,0-4.2-1.9-4.2-4.2v-70
			C0,1.9,1.9,0,4.2,0z"/>
		<path class="st1" d="M34.5,78.4h86.8c2.3,0,4.2-1.9,4.2-4.2l0,0V44.9C117.1,50.1,85.7,68.3,34.5,78.4z"/>
		
			<radialGradient id="SVGID_1_" cx="58.185" cy="526.88" r="7.6813" gradientTransform="matrix(1 0 0 -1 6.42 566.08)" gradientUnits="userSpaceOnUse">
			<stop  offset="1.000000e-02" style="stop-color:#FFEEE0"/>
			<stop  offset="0.11" style="stop-color:#FEE9D7"/>
			<stop  offset="0.28" style="stop-color:#FDDBBF"/>
			<stop  offset="0.49" style="stop-color:#FBC597"/>
			<stop  offset="0.74" style="stop-color:#F8A560"/>
			<stop  offset="1" style="stop-color:#F48120"/>
		</radialGradient>
		<path class="st2" d="M64.6,31.6c-4.2-0.1-7.7,3.3-7.8,7.5c0,0,0,0,0,0c-0.2,4.3,3.2,7.9,7.5,8c4.3,0.2,7.9-3.2,8-7.5
			s-3.2-7.9-7.5-8C64.8,31.6,64.7,31.6,64.6,31.6z"/>
		<path class="st3" d="M20.5,31.9h-4.2v14.6h4.2c1.9,0.1,3.7-0.5,5.2-1.7c1.7-1.4,2.6-3.4,2.6-5.6C28.3,34.9,25.1,31.9,20.5,31.9z
			 M23.8,42.9c-1.1,0.9-2.5,1.3-3.9,1.1h-0.8v-9.7h0.8c1.4-0.1,2.8,0.3,3.9,1.2c1,0.9,1.6,2.3,1.6,3.6
			C25.4,40.6,24.8,41.9,23.8,42.9L23.8,42.9z"/>
		<rect x="29.6" y="31.9" class="st3" width="2.8" height="14.6"/>
		<path class="st3" d="M39.4,37.5c-1.7-0.6-2.2-1-2.2-1.8s0.9-1.6,2.1-1.6c0.9,0,1.8,0.5,2.3,1.2l1.5-1.9c-1.2-1.1-2.7-1.6-4.3-1.6
			c-2.4-0.1-4.4,1.6-4.5,4c0,0.1,0,0.1,0,0.2c0,2,0.9,3,3.6,4c0.7,0.2,1.4,0.5,2,0.8c0.5,0.3,0.8,0.9,0.8,1.5c0,1.1-0.9,2.1-2.1,2.1
			c0,0-0.1,0-0.1,0c-1.3,0-2.5-0.7-3.1-2L33.5,44c1.1,1.8,3,2.8,5,2.8c2.6,0.2,4.8-1.8,5-4.4c0-0.1,0-0.3,0-0.4
			C43.6,39.7,42.6,38.7,39.4,37.5z"/>
		<path class="st3" d="M44.5,39.2c0,4.2,3.3,7.6,7.5,7.6c0.1,0,0.1,0,0.2,0c1.2,0,2.5-0.3,3.6-0.8v-3.4c-0.9,1-2.1,1.6-3.4,1.6
			c-2.6,0.1-4.8-2-4.9-4.6c0-0.1,0-0.2,0-0.4c-0.1-2.6,1.9-4.9,4.5-5c1.5-0.1,2.9,0.5,3.9,1.6v-3.4c-1.1-0.6-2.3-0.9-3.5-0.9
			C48,31.5,44.5,34.9,44.5,39.2C44.5,39.1,44.5,39.2,44.5,39.2z"/>
		<polygon class="st3" points="78.8,41.7 74.9,31.9 71.8,31.9 78,46.8 79.5,46.8 85.8,31.9 82.8,31.9 		"/>
		<polygon class="st3" points="87.1,46.5 95.2,46.5 95.2,44 90,44 90,40.1 95,40.1 95,37.6 90,37.6 90,34.3 95.2,34.3 95.2,31.9 
			87.1,31.9 		"/>
		<path class="st3" d="M106.5,36.2c0-2.7-1.9-4.3-5.2-4.3h-4.2v14.6h2.8v-5.9h0.4l3.9,5.9h3.5l-4.6-6.2
			C105.2,40,106.6,38.2,106.5,36.2z M100.8,38.6h-0.8v-4.4h0.9c1.8,0,2.7,0.8,2.7,2.2S102.6,38.6,100.8,38.6z"/>
		<path class="st4" d="M108.5,33c0-0.3-0.2-0.4-0.5-0.4h-0.4v1.3h0.3v-0.5l0.4,0.5h0.4l-0.4-0.5C108.4,33.3,108.5,33.2,108.5,33z
			 M107.9,33.2L107.9,33.2l-0.1-0.3h0.1c0.2,0,0.2,0,0.2,0.2S108.1,33.1,107.9,33.2L107.9,33.2z"/>
		<path class="st4" d="M108.1,32.1c-0.6,0-1.1,0.5-1.1,1.1c0,0.6,0.5,1.1,1.1,1.1c0.6,0,1.1-0.5,1.1-1.1c0,0,0,0,0,0
			C109.2,32.6,108.7,32.1,108.1,32.1z M108.1,34.1c-0.5,0-0.9-0.4-1-0.9c0-0.5,0.4-0.9,0.9-1s0.9,0.4,1,0.9c0,0,0,0,0,0
			C109,33.7,108.6,34.1,108.1,34.1C108.1,34.1,108.1,34.1,108.1,34.1L108.1,34.1z"/>
	</g>
</g>
</svg>
