<svg xmlns="http://www.w3.org/2000/svg" viewBox="0 0 21 21"><defs><style>.cls-1{fill:#7f7f7f;}.cls-2{fill:#444;}</style></defs><title>Platinum</title><g id="Layer_2" data-name="Layer 2"><g id="Layer_1-2" data-name="Layer 1"><path class="cls-1" d="M9.5,0A9.5,9.5,0,1,0,19,9.5,9.51,9.51,0,0,0,9.5,0Zm0,17A7.5,7.5,0,1,1,17,9.5,7.5,7.5,0,0,1,9.5,17Z"/><path class="cls-2" d="M4.86,6.56H7.09A1.71,1.71,0,0,1,9,8.27,1.73,1.73,0,0,1,7,10H5.64v2.42H4.86Zm.78,2.81H7c.81,0,1.21-.4,1.21-1.08A1,1,0,0,0,7,7.22H5.64Z"/><path class="cls-2" d="M11.46,7.23H9.56V6.56h4.58v.67h-1.9v5.21h-.78Z"/></g></g></svg>