<svg xmlns="http://www.w3.org/2000/svg" viewBox="0 0 17.31 17.31"><defs><style>.cls-1{fill:#8e8e8e;}</style></defs><g id="Layer_2" data-name="Layer 2"><g id="Canada"><path class="cls-1" d="M14,12.64A6.62,6.62,0,1,0,4.73,14,6.61,6.61,0,0,0,14,12.64ZM4,5.22a5.86,5.86,0,1,1,1.22,8.19A5.86,5.86,0,0,1,4,5.22Z"/><path class="cls-1" d="M11.4.37,9.09,0,8.44.68,9.89,2.43l1.92-1.22L11.4.37Z"/><path class="cls-1" d="M14.27,2.13,12.37.75l-.88.32L12,3.28l2.26-.21,0-.94Z"/><path class="cls-1" d="M3.05,2.13l0,.94,2.27.21.49-2.21L5,.75,3.05,2.13Z"/><path class="cls-1" d="M5.84.37l-.4.84L7.36,2.43,8.8.68,8.16,0,5.84.37Z"/><path class="cls-1" d="M5.91,17l2.32.36.64-.67L7.43,14.88,5.51,16.1l.4.85Z"/><path class="cls-1" d="M3.05,15.18,5,16.56l.88-.31L5.34,14l-2.27.22,0,.93Z"/><path class="cls-1" d="M14.27,15.18l0-.93L12,14l-.49,2.22.88.31,1.9-1.38Z"/><path class="cls-1" d="M11.47,17l.41-.85L10,14.88,8.51,16.64l.65.67L11.47,17Z"/><path class="cls-1" d="M17,11.4l.36-2.31-.67-.65L14.88,9.89l1.22,1.92L17,11.4Z"/><path class="cls-1" d="M15.18,14.27l1.38-1.9-.31-.88L14,12l.22,2.26.93,0Z"/><path class="cls-1" d="M15.18,3.05l-.93,0L14,5.34l2.22.49L16.56,5l-1.38-1.9Z"/><path class="cls-1" d="M17,5.84l-.85-.4L14.88,7.36,16.64,8.8l.67-.64L17,5.84Z"/><path class="cls-1" d="M.37,5.91,0,8.23l.68.64L2.43,7.43,1.21,5.51l-.84.4Z"/><path class="cls-1" d="M2.13,3.05.75,5l.32.88,2.21-.49L3.07,3.07l-.94,0Z"/><path class="cls-1" d="M2.13,14.27l.94,0L3.28,12l-2.21-.49-.32.88,1.38,1.9Z"/><path class="cls-1" d="M.37,11.47l.84.41L2.43,10,.68,8.51,0,9.16l.37,2.31Z"/></g></g></svg>